<?xml version="1.0" encoding="utf-8"?>
<!-- Generator: Adobe Illustrator 17.1.0, SVG Export Plug-In . SVG Version: 6.00 Build 0)  -->
<!DOCTYPE svg PUBLIC "-//W3C//DTD SVG 1.1//EN" "http://www.w3.org/Graphics/SVG/1.1/DTD/svg11.dtd">
<svg version="1.1" id="图层_1" xmlns="http://www.w3.org/2000/svg" xmlns:xlink="http://www.w3.org/1999/xlink" x="0px" y="0px"
	 viewBox="0 0 32 32" enable-background="new 0 0 32 32" xml:space="preserve">
<g>
	<path fill="#2A2F36" d="M5.116,21.292V10.02c0-0.256,0.269-0.422,0.498-0.308l10.357,5.178c0.097,0.048,0.211,0.048,0.308,0
		l10.357-5.178c0.229-0.114,0.498,0.052,0.498,0.308v11.271c0,0.256-0.269,0.422-0.498,0.308l-0.688-0.344
		c-0.117-0.058-0.19-0.177-0.19-0.308v-8.863c0-0.256-0.269-0.422-0.498-0.308l-8.981,4.49c-0.097,0.048-0.211,0.048-0.308,0
		l-8.981-4.49c-0.229-0.114-0.498,0.052-0.498,0.308v8.863c0,0.13-0.074,0.249-0.19,0.308l-0.688,0.344
		C5.386,21.714,5.116,21.547,5.116,21.292z"/>
	<path fill="#2A2F36" d="M16.279,17.109c-0.097-0.048-0.211-0.048-0.308,0l-0.534,0.267l-9.705,4.853
		c-0.254,0.127-0.254,0.489,0,0.615l10.239,5.12c0.097,0.048,0.211,0.048,0.308,0l10.239-5.12c0.254-0.127,0.254-0.489,0-0.615
		l-9.705-4.852L16.279,17.109z"/>
	<path fill="#2A2F36" d="M15.971,4.036L7.108,8.468c-0.254,0.127-0.254,0.489,0,0.615l8.863,4.432c0.097,0.048,0.211,0.048,0.308,0
		l8.863-4.432c0.254-0.127,0.254-0.489,0-0.615l-8.863-4.432C16.182,3.988,16.068,3.988,15.971,4.036z"/>
</g>
</svg>
